<svg width="43" height="33" viewBox="0 0 43 33" fill="none" xmlns="http://www.w3.org/2000/svg">
<path d="M1.664 32.816L4.96 29.36H12.864L15.968 32.816H1.664ZM0.704 17.104L4.16 20.432V28.272L0.704 31.408V17.104ZM16.992 31.408L13.536 28.112V20.24L16.992 17.104V31.408ZM1.632 0.303999H15.936L12.768 3.76H4.928L1.632 0.303999ZM0.608 15.984V1.68L4.064 4.784V12.72L0.608 15.984ZM16.896 1.68V15.984L13.44 12.88V4.976L16.896 1.68ZM27.2578 32.816L30.5538 29.36H38.4578L41.5618 32.816H27.2578ZM26.2977 17.104L29.7538 20.432V28.272L26.2977 31.408V17.104ZM42.5858 31.408L39.1298 28.112V20.24L42.5858 17.104V31.408ZM30.0098 18.256C29.2631 17.6587 28.5058 17.072 27.7378 16.496L30.0098 14.8H38.7458L40.9858 16.496L38.7458 18.256H30.0098ZM27.2258 0.303999H41.5298L38.3618 3.76H30.5218L27.2258 0.303999ZM26.2018 15.984V1.68L29.6578 4.784V12.72L26.2018 15.984Z" fill="#484848"/>
</svg>
