<svg width="42" height="33" viewBox="0 0 42 33" fill="none" xmlns="http://www.w3.org/2000/svg">
<path d="M0.76 32.816L3.992 29.36H11.928L15.032 32.816H0.76ZM16.024 31.408L12.6 28.112V20.24L16.024 17.104V31.408ZM3.448 18.256C2.72267 17.6587 1.976 17.072 1.208 16.496L3.448 14.8H12.184L14.424 16.496L12.184 18.256H3.448ZM0.664 0.303999H15L11.864 3.76H3.96L0.664 0.303999ZM15.928 1.68V15.984L12.504 12.88V4.976L15.928 1.68ZM26.2578 32.816L29.5538 29.36H37.4578L40.5618 32.816H26.2578ZM25.2977 17.104L28.7538 20.432V28.272L25.2977 31.408V17.104ZM41.5858 31.408L38.1298 28.112V20.24L41.5858 17.104V31.408ZM26.2258 0.303999H40.5298L37.3618 3.76H29.5218L26.2258 0.303999ZM25.2018 15.984V1.68L28.6578 4.784V12.72L25.2018 15.984ZM41.4898 1.68V15.984L38.0338 12.88V4.976L41.4898 1.68Z" fill="#484848"/>
</svg>
